# AST/ASF file generated using VICON BodyLanguage
# -----------------------------------------------
:version 1.10
:name VICON
:units
  mass 1.0
  length 0.45
  angle deg
:documentation
   .ast/.asf automatically generated from VICON data using
   VICON BodyBuilder and BodyLanguage model FoxedUp or BRILLIANT.MOD
:root
   order TX TY TZ RX RY RZ
   axis XYZ
   position 0 0 0  
   orientation 0 0 0 
:bonedata
  begin
     id 1 
     name lhipjoint
     direction 0.627457 -0.725269 0.283342 
     length 2.53237 
     axis 0 0 0  XYZ
  end
  begin
     id 2 
     name lfemur
     direction 0.34202 -0.939693 0  
     length 7.32496  
     axis 0 0 20  XYZ
    dof rx ry rz
    limits (-160.0 20.0)
           (-70.0 70.0)
           (-60.0 70.0)
  end
  begin
     id 3 
     name ltibia
     direction 0.34202 -0.939693 0   
     length 7.69674   
     axis 0 0 20   XYZ
    dof rx
    limits (-10.0 170.0)
  end
  begin
     id 4 
     name lfoot
     direction 0.127289 -0.349722 0.928166   
     length 1.8612   
     axis -90 7.62852e-016 20   XYZ
    dof rx rz
    limits (-45.0 90.0)
           (-70.0 20.0)
  end
  begin
     id 5 
     name ltoes
     direction 1.53561e-011 -4.21864e-011 1   
     length 0.925608   
     axis -90 7.62852e-016 20   XYZ
    dof rx
    limits (-90.0 20.0)
  end
  begin
     id 6 
     name rhipjoint
     direction -0.609094 -0.738725 0.288599   
     length 2.48624  
     axis 0 0 0  XYZ 
  end
  begin
     id 7 
     name rfemur
     direction -0.34202 -0.939693 0   
     length 7.44259   
     axis 0 0 -20   XYZ
    dof rx ry rz
    limits (-160.0 20.0)
           (-70.0 70.0)
           (-70.0 60.0)
  end
  begin
     id 8 
     name rtibia
     direction -0.34202 -0.939693 0   
     length 7.7781   
     axis 0 0 -20   XYZ
    dof rx
    limits (-10.0 170.0)
 end
 begin
     id 9 
     name rfoot
     direction -0.107015 -0.294021 0.949789   
     length 2.14741  
     axis -90 -7.62852e-016 -20   XYZ
    dof rx rz
    limits (-45.0 90.0)
           (-20.0 70.0)
  end
  begin
     id 10 
     name rtoes
     direction -1.53497e-011 -4.21924e-011 1   
     length 1.0706   
     axis -90 -7.62852e-016 -20   XYZ
    dof rx
    limits (-90.0 20.0)
  end
  begin
     id 11 
     name lowerback
     direction -0.0142066 0.998112 -0.0597545   
     length 1.86627   
     axis 0 0 0   XYZ
    dof rx ry rz
    limits (-20.0 45.0)
           (-30.0 30.0)
           (-30.0 30.0)
  end
  begin
     id 12 
     name upperback
     direction 0.00547294 0.999744 0.0219437   
     length 1.86272   
     axis 0 0 0   XYZ
    dof rx ry rz
    limits (-20.0 45.0)
           (-30.0 30.0)
           (-30.0 30.0)
  end
  begin
     id 13 
     name thorax
     direction 0.0116162 0.998704 0.0495538   
     length 1.8703   
     axis 0 0 0   XYZ
    dof rx ry rz
    limits (-20.0 45.0)
           (-30.0 30.0)
           (-30.0 30.0)
  end
  begin
     id 14 
     name lowerneck
     direction -0.0106574 0.998739 0.0490586   
     length 1.8074   
     axis 0 0 0   XYZ
    dof rx ry rz
    limits (-20.0 45.0)
           (-30.0 30.0)
           (-30.0 30.0)
  end
  begin
     id 15 
     name upperneck
     direction 0.030527 0.976587 -0.212944   
     length 1.80681   
     axis 0 0 0   XYZ
    dof rx ry rz
    limits (-20.0 45.0)
           (-30.0 30.0)
           (-30.0 30.0)
  end
  begin
     id 16
     name head
     direction 0.00869225 0.997035 -0.0764531  
     length 1.8313  
     axis 0 0 0   XYZ
    dof rx ry rz
    limits (-20.0 45.0)
           (-30.0 30.0)
           (-30.0 30.0)
  end
  begin
     id 17 
     name lclavicle
     direction 0.915958 0.399447 0.0382386  
     length 3.78965  
     axis 0 0 0   XYZ
    dof ry rz
    limits (-20.0 10.0)
           (0.0 20.0)
  end
  begin
     id 18 
     name lhumerus
     direction 1 -4.48967e-011 3.19303e-027   
     length 4.78095   
     axis -180 -30 -90   XYZ
    dof rx ry rz
    limits (-60.0 90.0)
           (-90.0 90.0)
           (-90.0 90.0)
  end
  begin
     id 19
     name lradius
     direction 1 -4.48967e-011 -3.77974e-027   
     length 3.58615   
     axis -180 -30 -90   XYZ
    dof rx
    limits (-10.0 170.0)
  end
  begin
     id 20
     name lwrist
     direction 1 -4.48927e-011 1.2807e-027   
     length 1.79307   
     axis 1.91374e-015 90 90   XYZ
    dof ry
    limits (-180.0 0.0)
 end
  begin
     id 21 
     name lhand
     direction 1 -4.49036e-011 2.5614e-027   
     length 0.659812   
     axis -1.63439e-015 90 90   XYZ
    dof rx rz
    limits (-90.0 90.0)
           (-45.0 45.0)
  end
  begin
     id 22 
     name lfingers
     direction 1 -4.49052e-011 5.1228e-027   
     length 0.531957   
     axis -3.26879e-015 90 90   XYZ
    dof rx
    limits (0.0 90.0)
  end
  begin
     id 23
     name lthumb
     direction 0.707107 -6.35012e-011 0.707107   
     length 0.763787   
     axis -90 45 2.85299e-015   XYZ
    dof rx rz
    limits (-45.0 45.0)
           (-45.0 45.0)
  end
  begin
     id 24 
     name rclavicle
     direction -0.895351 0.435135 0.0948887   
     length 3.70497  
     axis 0 0 0   XYZ 
    dof ry rz
    limits (-10.0 20.0)
           (-20.0 0.0)
  end
  begin
     id 25 
     name rhumerus
     direction -1 -4.48971e-011 2.38946e-027  
     length 4.48913   
     axis -180 30 90   XYZ
    dof rx ry rz
    limits (-90.0 60.0)
           (-90.0 90.0)
           (-90.0 90.0)
  end
  begin
     id 26 
     name rradius
     direction -1 -4.4895e-011 4.38668e-027   
     length 3.7051   
     axis -180 30 90   XYZ
    dof rx
    limits (-10.0 170.0)
  end
  begin
     id 27 
     name rwrist
     direction -1 -4.49007e-011 1.2807e-027   
     length 1.85255   
     axis 1.91374e-015 -90 -90   XYZ
    dof ry
    limits (-180.0 0.0)
  end
  begin
     id 28
     name rhand
     direction -1 -4.48851e-011 2.5614e-027   
     length 0.449136   
     axis -1.63439e-015 -90 -90   XYZ
    dof rx rz
    limits (-90.0 90.0)
           (-45.0 45.0)
  end
  begin
     id 29
     name rfingers
     direction -1 -4.49128e-011 5.1228e-027   
     length 0.362105   
     axis -3.26879e-015 -90 -90   XYZ
    dof rx
    limits (0.0 90.0)
  end
  begin
     id 30
     name rthumb
     direction -0.707107 -6.34851e-011 0.707107   
     length 0.519912   
     axis -90 -45 -2.85299e-015   XYZ
    dof rx rz
    limits (-45.0 45.0)
           (-45.0 45.0)
  end
:hierarchy
  begin
    root lhipjoint rhipjoint lowerback
    lhipjoint lfemur
    lfemur ltibia
    ltibia lfoot
    lfoot ltoes
    rhipjoint rfemur
    rfemur rtibia
    rtibia rfoot
    rfoot rtoes
    lowerback upperback
    upperback thorax
    thorax lowerneck lclavicle rclavicle
    lowerneck upperneck
    upperneck head
    lclavicle lhumerus
    lhumerus lradius
    lradius lwrist
    lwrist lhand lthumb
    lhand lfingers
    rclavicle rhumerus
    rhumerus rradius
    rradius rwrist
    rwrist rhand rthumb
    rhand rfingers
  end

#!OML:ASF I:\Actors\actors\Patient Classification 2\Patient 1\Session 1\actor1.ASF
:FULLY-SPECIFIED
:DEGREES
25
root -0.634673 18.718 5.68046 5.0386 -2.77392 -0.487149
lowerback -2.42354 1.22199 -2.83374
upperback -3.73303 1.64809 -0.0309685
thorax -2.55783 0.89813 1.55588
lowerneck -10.2893 -2.73802 -1.93585
upperneck 25.1052 -4.51459 4.00902
head 9.76968 -1.84329 1.20906
rclavicle 1.16786e-014 -1.53064e-014
rhumerus -49.6428 -1.91186 -86.0914
rradius 41.4996
rwrist 12.8795
rhand -7.63716 -41.0862
rfingers 7.12502
rthumb 18.2579 -70.2494
lclavicle 1.16786e-014 -1.53064e-014
lhumerus -41.898 2.43001 89.0767
lradius 35.2006
lwrist -7.51182
lhand -6.93341 -26.8939
lfingers 7.12502
lthumb 18.9349 2.20445
rfemur 1.98852 4.60723 13.3525
rtibia 3.18055e-015
rfoot -16.1113 -10.4781
rtoes -3.32958
lfemur -6.59146 -8.14813 -13.4273
ltibia 19.7448
lfoot -22.8607 13.9422
ltoes -55.1697
26
root -0.634361 18.7178 5.68104 5.03277 -2.78506 -0.470008
lowerback -2.4384 1.22637 -2.85465
upperback -3.73464 1.6544 -0.0366975
thorax -2.55198 0.901688 1.56201
lowerneck -10.2408 -2.74004 -1.91025
upperneck 25.056 -4.5127 3.97777
head 9.74133 -1.84482 1.19452
rclavicle -2.0276e-014 -1.15295e-014
rhumerus -49.6424 -1.93926 -86.0892
rradius 41.4849
rwrist 12.8863
rhand -7.6666 -41.0823
rfingers 7.12502
rthumb 18.2296 -70.2481
lclavicle -2.0276e-014 -1.15295e-014
lhumerus -41.9459 2.3456 89.1049
lradius 35.2459
lwrist -7.45549
lhand -6.99531 -26.8027
lfingers 7.12502
lthumb 18.8753 2.30149
rfemur 1.99321 4.61721 13.3325
rtibia 0
rfoot -16.1283 -10.4739
rtoes -3.2933
lfemur -6.57418 -8.16253 -13.4501
ltibia 19.742
lfoot -22.9173 13.9504
ltoes -55.1427
27
root -0.633865 18.7175 5.68127 5.04289 -2.79525 -0.46181
lowerback -2.4645 1.22533 -2.86906
upperback -3.73787 1.65391 -0.0360683
thorax -2.54114 0.901726 1.57131
lowerneck -10.206 -2.73461 -1.90263
upperneck 25.0251 -4.50793 3.98746
head 9.7235 -1.84177 1.1975
rclavicle -9.44227e-015 1.27222e-014
rhumerus -49.627 -1.9825 -86.0696
rradius 41.4482
rwrist 12.9523
rhand -7.653 -40.9998
rfingers 7.12502
rthumb 18.2427 -70.1643
lclavicle -9.44227e-015 1.27222e-014
lhumerus -41.9741 2.31 89.1172
lradius 35.2777
lwrist -7.41734
lhand -7.02052 -26.7279
lfingers 7.12502
lthumb 18.8511 2.37868
rfemur 1.97867 4.62535 13.3217
rtibia -1.43125e-014
rfoot -16.1155 -10.4882
rtoes -3.26636
lfemur -6.58367 -8.14453 -13.459
ltibia 19.7411
lfoot -22.9521 13.9451
ltoes -55.1924
28
root -0.633666 18.7173 5.68062 5.04898 -2.77952 -0.464528
lowerback -2.46531 1.22124 -2.8662
upperback -3.73851 1.64855 -0.0314968
thorax -2.54113 0.899053 1.57442
lowerneck -10.1968 -2.75449 -1.94814
upperneck 24.9976 -4.53708 4.03212
head 9.71514 -1.85521 1.21743
rclavicle 1.70085e-014 6.16232e-015
rhumerus -49.6141 -2.00496 -86.0497
rradius 41.4339
rwrist 13.0151
rhand -7.61936 -40.9064
rfingers 7.12502
rthumb 18.2751 -70.0679
lclavicle 1.70085e-014 6.16232e-015
lhumerus -41.9723 2.30948 89.1143
lradius 35.2707
lwrist -7.38158
lhand -7.04773 -26.8165
lfingers 7.12502
lthumb 18.8249 2.29263
rfemur 1.97605 4.60937 13.3266
rtibia 1.59028e-015
rfoot -16.1006 -10.4936
rtoes -3.28945
lfemur -6.60491 -8.11818 -13.4485
ltibia 19.7464
lfoot -22.909 13.9104
ltoes -55.2011
29
root -0.633556 18.7175 5.68055 5.06177 -2.76289 -0.45864
lowerback -2.47301 1.21328 -2.87393
upperback -3.74536 1.63812 -0.0319481
thorax -2.54361 0.894147 1.57837
lowerneck -10.1844 -2.77398 -1.97045
upperneck 24.9686 -4.56245 4.04563
head 9.70423 -1.86823 1.22303
rclavicle -2.65874e-015 1.72943e-014
rhumerus -49.6226 -1.97579 -86.0718
rradius 41.4549
rwrist 13.0104
rhand -7.59682 -40.8669
rfingers 7.12502
rthumb 18.2967 -70.0264
lclavicle -2.65874e-015 1.72943e-014
lhumerus -41.9743 2.30654 89.0962
lradius 35.2548
lwrist -7.34628
lhand -7.09113 -26.9346
lfingers 7.12502
lthumb 18.7832 2.17856
rfemur 1.96409 4.59077 13.3189
rtibia -1.74931e-014
rfoot -16.0875 -10.4892
rtoes -3.21404
lfemur -6.62474 -8.13119 -13.4511
ltibia 19.7463
lfoot -22.8683 13.9119
ltoes -55.1719
30
root -0.633511 18.7181 5.68059 5.08231 -2.76493 -0.463583
lowerback -2.48983 1.20744 -2.87425
upperback -3.75384 1.6307 -0.0339278
thorax -2.54253 0.890497 1.57681
lowerneck -10.1983 -2.77316 -1.95574
upperneck 24.9676 -4.56235 4.03807
head 9.70602 -1.86749 1.21771
rclavicle -2.38169e-014 1.35174e-014
rhumerus -49.6186 -1.94244 -86.1124
rradius 41.4684
rwrist 12.9884
rhand -7.60504 -40.8999
rfingers 7.12502
rthumb 18.2888 -70.0602
lclavicle -2.38169e-014 1.35174e-014
lhumerus -41.9727 2.33665 89.0486
lradius 35.2443
lwrist -7.40249
lhand -7.11148 -26.9953
lfingers 7.12502
lthumb 18.7636 2.11969
rfemur 1.93444 4.5909 13.3204
rtibia -3.18055e-015
rfoot -16.0736 -10.496
rtoes -3.1443
lfemur -6.64253 -8.16162 -13.4456
ltibia 19.7429
lfoot -22.8862 13.9626
ltoes -55.2065
